<?xml version="1.0" encoding="UTF-8"?>
<svg version="1.1" xmlns="http://www.w3.org/2000/svg" width="1280" height="1280">
<path d="M0 0 C422.4 0 844.8 0 1280 0 C1280 422.4 1280 844.8 1280 1280 C857.6 1280 435.2 1280 0 1280 C0 857.6 0 435.2 0 0 Z " fill="#FEFEFE" transform="translate(0,0)"/>
<path d="M0 0 C3.99212123 1.56334818 6.41597694 4.36057132 9.1875 7.5 C9.67162354 8.03826416 10.15574707 8.57652832 10.65454102 9.13110352 C12.10843326 10.74932595 13.55460716 12.37418716 15 14 C16.47823343 15.64667159 17.95733119 17.29256788 19.4375 18.9375 C20.16453125 19.74703125 20.8915625 20.5565625 21.640625 21.390625 C29.25976944 29.817096 37.02713379 38.10850168 44.78344727 46.40844727 C50.05486096 52.05187527 55.2956106 57.72308347 60.52783203 63.40283203 C62.02650133 65.02875152 63.52667664 66.6532681 65.02734375 68.27734375 C69.80148917 73.44453668 74.5676083 78.61838778 79.3125 83.8125 C84.36059196 89.32950036 89.47324672 94.78406269 94.6105957 100.21801758 C97.63283611 103.42601639 100.60197224 106.66442914 103.4921875 109.9921875 C107.0184716 114.05156046 110.68009359 117.96936658 114.375 121.875 C120.44518794 128.32034119 126.4371167 134.82563177 132.29345703 141.46679688 C133.64909915 143.00309441 135.011748 144.5329555 136.375 146.0625 C137.18710937 146.98160156 137.99921875 147.90070313 138.8359375 148.84765625 C140.89109775 151.21080127 140.89109775 151.21080127 144 152 C146.3903104 150.21927881 148.54958453 148.43133638 150.75 146.4375 C151.953125 145.37369792 153.15625 144.30989583 154.359375 143.24609375 C156.22271102 141.58571027 158.08478438 139.9240136 159.94335938 138.25830078 C160.87631836 137.43628174 160.87631836 137.43628174 161.828125 136.59765625 C162.66972168 135.84947632 162.66972168 135.84947632 163.52832031 135.08618164 C165 134 165 134 167 134 C167 134.66 167 135.32 167 136 C167.70253906 136.23847656 168.40507813 136.47695313 169.12890625 136.72265625 C172.5069604 138.22554565 175.033162 140.14845681 177.9375 142.4375 C178.50033691 142.87852051 179.06317383 143.31954102 179.64306641 143.77392578 C180.83322487 144.7075704 182.02134081 145.6438239 183.20751953 146.58251953 C184.94450706 147.95611659 186.68780394 149.32120874 188.43359375 150.68359375 C193.80477128 154.88063891 199.1468087 159.11195723 204.45849609 163.3840332 C210.49330498 168.23715118 216.58436454 173.00145311 222.75 177.6875 C228.34909353 181.94336087 233.85504115 186.28030596 239.2734375 190.765625 C242.42066483 193.3447282 245.61013101 195.86494013 248.8125 198.375 C249.69542725 199.06746826 249.69542725 199.06746826 250.59619141 199.77392578 C253.57524279 202.10771869 256.55906582 204.43524481 259.546875 206.7578125 C262.45592191 209.02223877 265.35129082 211.30308403 268.23583984 213.59863281 C269.44651991 214.56034103 270.6605764 215.51780943 271.87744141 216.47167969 C273.72281373 217.92416629 275.55036671 219.39658691 277.375 220.875 C277.940979 221.31521484 278.50695801 221.75542969 279.09008789 222.20898438 C281.68843566 224.34856073 282.92611465 225.40727528 283.3515625 228.8203125 C283.23554687 229.53960938 283.11953125 230.25890625 283 231 C281.3984375 231.796875 281.3984375 231.796875 279 232 C276.69009656 230.50069592 274.71400979 229.01652961 272.625 227.25 C271.37140639 226.22617958 270.11749098 225.20275307 268.86328125 224.1796875 C268.22342285 223.65084961 267.58356445 223.12201172 266.92431641 222.57714844 C263.9291314 220.12232794 260.86856602 217.75321042 257.8125 215.375 C252.6779139 211.35084461 247.60963266 207.25248954 242.5703125 203.109375 C236.32046389 197.98031991 229.98463869 192.97382375 223.5625 188.0625 C218.58594074 184.25566031 213.71623665 180.33948972 208.8828125 176.3515625 C205.00319442 173.18688759 201.06366302 170.10178919 197.12133789 167.01586914 C193.73228282 164.36249493 190.35623811 161.69491041 187 159 C182.87015903 155.68788128 178.72119121 152.40076908 174.5625 149.125 C173.95857422 148.64804687 173.35464844 148.17109375 172.73242188 147.6796875 C170.20291819 145.6903829 167.67914306 143.78609537 165 142 C163.45135099 147.55041012 161.92962035 153.23155008 163 159 C166.32774901 163.33680839 170.29368109 165.85879467 174.91943359 168.6875 C178.33961589 170.84508038 181.48670955 173.34657464 184.6875 175.8125 C195.63018002 184.01984506 206.67161036 192.09649741 217.70361328 200.18310547 C218.89363938 201.05548937 220.08342129 201.92820648 221.27294922 202.80126953 C224.84784222 205.4247875 228.42799865 208.04089307 232.01171875 210.65234375 C233.73705276 211.91396186 235.46231396 213.17567956 237.1875 214.4375 C238.40953125 215.32501953 238.40953125 215.32501953 239.65625 216.23046875 C243.3652848 218.94834971 246.88752718 221.58550825 250 225 C246.38630881 224.4296258 243.74549508 223.49848623 240.61328125 221.62109375 C239.77079834 221.12029297 238.92831543 220.61949219 238.06030273 220.10351562 C237.15352783 219.55373047 236.24675293 219.00394531 235.3125 218.4375 C234.35351807 217.86322266 233.39453613 217.28894531 232.40649414 216.69726562 C217.67271251 207.84445121 203.07194812 198.77143489 188.4675293 189.70751953 C185.89143912 188.11140959 183.31114061 186.52228126 180.73046875 184.93359375 C177.66677271 183.04494594 174.63117565 181.12106694 171.61328125 179.16015625 C170.28386705 178.3150839 168.95444079 177.47003052 167.625 176.625 C166.76032104 176.04310913 166.76032104 176.04310913 165.87817383 175.44946289 C162.78333463 173.50929836 161.05133061 172.99796001 157.36328125 173.14453125 C154.47797484 173.87842452 152.16214437 174.64865832 149.5625 176.0625 C148.88316406 176.42472656 148.20382812 176.78695312 147.50390625 177.16015625 C147.00761719 177.43730469 146.51132812 177.71445312 146 178 C146.71542969 178.57234375 147.43085937 179.1446875 148.16796875 179.734375 C152.4453125 183.15625 156.72265625 186.578125 161 190 C160.278125 190.556875 159.55625 191.11375 158.8125 191.6875 C156.02542701 193.97909334 153.51358472 196.41459857 151 199 C160.66408623 208.14889275 160.66408623 208.14889275 170.8125 216.75 C175.13687732 220.21203815 179.02466896 223.92089301 182.890625 227.8828125 C185.45317526 230.45485369 188.14931135 232.8230666 190.90234375 235.1875 C194.16015621 238.0024441 197.34122059 240.90129475 200.52734375 243.796875 C202.11727109 245.21349273 203.73307168 246.60186509 205.37890625 247.953125 C206.09949219 248.54609375 206.82007813 249.1390625 207.5625 249.75 C208.20316406 250.26046875 208.84382812 250.7709375 209.50390625 251.296875 C211.39291737 253.44728975 211.65220834 255.19860963 212 258 C209.80078125 258.75 209.80078125 258.75 207 259 C204.60546875 257.375 204.60546875 257.375 202.1875 255 C200.87265625 253.74123047 200.87265625 253.74123047 199.53125 252.45703125 C198.27828125 251.24080078 198.27828125 251.24080078 197 250 C195.73800691 248.88574023 194.46781891 247.78065364 193.1875 246.6875 C188.96856509 243.01625644 184.88059888 239.20756274 180.78027344 235.40527344 C177.27631005 232.1616161 173.72842048 228.98298384 170.11328125 225.86328125 C166.69755929 222.8516373 163.36538189 219.74780657 160.03491211 216.64233398 C157.23695655 214.01772379 157.23695655 214.01772379 154 212 C154 211.34 154 210.68 154 210 C153.10812988 209.59140747 153.10812988 209.59140747 152.19824219 209.17456055 C150.05559444 208.02970512 148.57993363 206.87355302 146.828125 205.20703125 C146.24981934 204.66224121 145.67151367 204.11745117 145.07568359 203.55615234 C144.47320801 202.98074707 143.87073242 202.4053418 143.25 201.8125 C141.9981492 200.63331428 140.74554975 199.45492282 139.4921875 198.27734375 C138.89116211 197.71128418 138.29013672 197.14522461 137.67089844 196.56201172 C133.87118158 193.00990937 130.04827779 189.44030841 125.7890625 186.4453125 C125.19867187 185.96835937 124.60828125 185.49140625 124 185 C124 184.34 124 183.68 124 183 C123.31292969 183.27714844 122.62585938 183.55429687 121.91796875 183.83984375 C121.01691406 184.20207031 120.11585938 184.56429687 119.1875 184.9375 C117.84751953 185.47697266 117.84751953 185.47697266 116.48046875 186.02734375 C114.6729091 186.73613486 112.84192591 187.3860247 111 188 C113.10544093 191.6994656 115.46167459 194.92133398 118.1875 198.1875 C121.05171 201.64383034 123.8980155 205.10808527 126.6875 208.625 C129.15580798 211.72633328 131.65562332 214.79755094 134.19140625 217.84375 C142.09923382 227.35098774 149.67715533 237.03503005 157 247 C156.67 247.66 156.34 248.32 156 249 C152.57568181 245.62501264 149.15790288 242.24358951 145.74609375 238.85595703 C144.58382014 237.70375906 143.41976033 236.55336008 142.25390625 235.40478516 C140.58123721 233.75629586 138.91503765 232.10150495 137.25 230.4453125 C136.7250293 229.93066437 136.20005859 229.41601624 135.65917969 228.88577271 C134.40092288 227.62791148 133.19497502 226.31812737 132 225 C132 224.34 132 223.68 132 223 C131.43152344 222.77054688 130.86304688 222.54109375 130.27734375 222.3046875 C127.40644288 220.65995184 125.71133644 218.63507931 123.5625 216.125 C120.59605489 212.66844657 117.63293304 209.7551344 114 207 C114.49628906 207.98097656 114.99257813 208.96195313 115.50390625 209.97265625 C119.08148733 217.06937279 122.61343208 224.18485147 126 231.375 C126.45354858 232.32838257 126.45354858 232.32838257 126.91625977 233.30102539 C129 237.76199899 129 237.76199899 129 240 C128.34 240 127.68 240 127 240 C125.46539061 237.98850005 124.037975 235.96984477 122.625 233.875 C119.01970249 228.67243559 115.2321624 223.76194783 111.0625 219 C107.08346456 214.45497834 103.25327784 209.84485008 99.5625 205.0625 C95.09941427 199.29052464 90.39334948 193.77200517 85.58349609 188.28710938 C81.53760907 183.6611361 77.67363661 178.92935239 74 174 C70.3900308 177.47555545 67.2869747 181.0578618 64.25 185.0625 C63.81880859 185.62904297 63.38761719 186.19558594 62.94335938 186.77929688 C59.37486744 191.47633091 55.84154754 196.20007038 52.31640625 200.9296875 C50.63383281 203.15987758 48.93679729 205.37099156 47.21484375 207.5703125 C46.75207031 208.16328125 46.28929687 208.75625 45.8125 209.3671875 C44.91165003 210.51884229 44.00683642 211.66741011 43.09765625 212.8125 C40.72293781 215.57652712 40.72293781 215.57652712 40 219 C41.54396487 220.28942865 41.54396487 220.28942865 43.6015625 221.546875 C44.39022705 222.05460449 45.1788916 222.56233398 45.99145508 223.08544922 C46.8605249 223.63475098 47.72959473 224.18405273 48.625 224.75 C49.52436279 225.32637207 50.42372559 225.90274414 51.3503418 226.49658203 C54.22881242 228.33862415 57.1136889 230.17027193 60 232 C61.80613185 233.14821375 63.61212429 234.29664682 65.41796875 235.4453125 C68.13233374 237.17153826 70.84717224 238.89698165 73.56396484 240.61938477 C80.33200716 244.91633779 87.04686601 249.29015484 93.75 253.6875 C100.56119165 258.15215132 107.40777693 262.53271529 114.375 266.75 C120.42031515 270.41011653 126.42494284 274.12404847 132.375 277.9375 C133.43726807 278.61087402 133.43726807 278.61087402 134.52099609 279.29785156 C138.06871832 281.58687205 141.14395583 283.84370504 144 287 C139.16012644 286.40363514 135.01493 284.93500724 130.578125 283 C129.85705063 282.69235214 129.13597626 282.38470428 128.39305115 282.06773376 C126.8294471 281.4002668 125.26702123 280.73003451 123.70565796 280.05734253 C119.46780276 278.23263216 115.22026469 276.43077122 110.97265625 274.62890625 C110.08379227 274.25149796 109.19492828 273.87408966 108.27912903 273.48524475 C96.41311045 268.46116444 84.45568097 263.66259148 72.50292969 258.84960938 C71.67143402 258.51474518 70.83993835 258.17988098 69.98324585 257.83486938 C68.35391242 257.17890711 66.72437994 256.52343898 65.09463501 255.86849976 C61.09969081 254.26056299 57.11206387 252.63719066 53.13525391 250.98486328 C52.35793411 250.66215958 51.58061432 250.33945587 50.77973938 250.00697327 C49.31657714 249.39809034 47.85441906 248.78678637 46.39347839 248.17259216 C41.8236451 246.13714197 41.8236451 246.13714197 37 245 C34.85410577 246.89586384 34.85410577 246.89586384 33 249 C32.34 249 31.68 249 31 249 C31.51691406 249.73605469 32.03382813 250.47210937 32.56640625 251.23046875 C33.22511719 252.20628906 33.88382813 253.18210937 34.5625 254.1875 C35.22378906 255.15042969 35.88507813 256.11335938 36.56640625 257.10546875 C38 260 38 260 37.96484375 262.57421875 C36.77376081 265.5688038 35.23533105 267.30429172 33 269.625 C25.99445383 277.10794472 19.68191327 285.13212768 13.29296875 293.140625 C5.93805863 302.31233575 -1.51068839 311.40890672 -8.96484375 320.5 C-10.95410093 322.94361727 -12.91678948 325.40646794 -14.875 327.875 C-18.54160247 332.47665973 -22.32600316 336.97077761 -26.14404297 341.44677734 C-28.82058705 344.58745075 -31.43975295 347.76379988 -34 351 C-38.65746003 350.47766803 -41.81774899 348.37708842 -45.5625 345.75 C-46.90666824 344.83073753 -48.25176867 343.91283709 -49.59765625 342.99609375 C-50.66910889 342.26302002 -50.66910889 342.26302002 -51.76220703 341.51513672 C-55.63795518 338.89099391 -59.57086301 336.35568361 -63.5 333.8125 C-64.32089111 333.27802246 -65.14178223 332.74354492 -65.98754883 332.19287109 C-70.77065504 329.08017906 -75.57173348 325.99843578 -80.390625 322.94140625 C-81.44958984 322.26424561 -82.50855469 321.58708496 -83.59960938 320.8894043 C-85.67357635 319.5632805 -87.75290017 318.24549143 -89.83789062 316.93676758 C-90.77310547 316.33630615 -91.70832031 315.73584473 -92.671875 315.1171875 C-93.5081543 314.58722168 -94.34443359 314.05725586 -95.20605469 313.51123047 C-95.79805664 313.01252441 -96.39005859 312.51381836 -97 312 C-97 311.01 -97 310.02 -97 309 C-94.92155026 307.00540703 -92.85236025 305.1891357 -90.625 303.375 C-89.32853338 302.29403973 -88.03296506 301.21200118 -86.73828125 300.12890625 C-86.09842285 299.59668457 -85.45856445 299.06446289 -84.79931641 298.51611328 C-82.41526826 296.50730202 -80.11119388 294.41808874 -77.8125 292.3125 C-74.47772886 289.28287132 -71.06712361 286.39391908 -67.5625 283.5625 C-62.788597 279.70174863 -58.26611572 275.62562925 -53.75 271.46875 C-50.18815771 268.27118704 -46.47434167 265.28611657 -42.75 262.28125 C-39.91900422 259.93281032 -37.20616402 257.49090098 -34.5 255 C-30.05272888 250.90648909 -25.45282537 247.07557501 -20.75 243.28125 C-17.91900422 240.93281032 -15.20616402 238.49090098 -12.5 236 C-7.97593212 231.83785755 -3.30870624 227.9129148 1.47265625 224.05078125 C4.70401615 221.42873496 7.8554947 218.72523793 11 216 C10.33718018 216.42337646 9.67436035 216.84675293 8.99145508 217.28295898 C2.24821354 221.58314274 -4.52424837 225.8338365 -11.3125 230.0625 C-22.01249744 236.73939817 -32.66424384 243.48909221 -43.29541016 250.27490234 C-46.8922879 252.5691376 -50.49283997 254.85757236 -54.09326172 257.14624023 C-61.84593166 262.07501164 -69.59161545 267.01450878 -77.32788086 271.96899414 C-79.43093405 273.31551146 -81.53460591 274.66106304 -83.63891602 276.00561523 C-88.87020183 279.34894891 -94.09191601 282.7056463 -99.296875 286.08984375 C-100.80024414 287.06147461 -100.80024414 287.06147461 -102.33398438 288.05273438 C-104.2299905 289.27821724 -106.12215196 290.50967612 -108.00976562 291.74804688 C-108.85732422 292.29396484 -109.70488281 292.83988281 -110.578125 293.40234375 C-111.31450195 293.88179443 -112.05087891 294.36124512 -112.80957031 294.85522461 C-115.295718 296.1545499 -117.1993332 296.77726656 -120 297 C-122.12817383 296.13549805 -122.12817383 296.13549805 -124.20703125 294.76171875 C-125.33334961 294.02598633 -125.33334961 294.02598633 -126.48242188 293.27539062 C-127.25134766 292.75138672 -128.02027344 292.22738281 -128.8125 291.6875 C-129.99489258 290.91889648 -129.99489258 290.91889648 -131.20117188 290.13476562 C-135.43690266 287.321947 -135.43690266 287.321947 -137 286 C-137 285.34 -137 284.68 -137 284 C-134.98482852 282.65655235 -132.97710213 281.44533403 -130.875 280.25 C-124.30284035 276.41072285 -117.84972612 272.4131638 -111.4375 268.3125 C-110.51267822 267.72170654 -109.58785645 267.13091309 -108.63500977 266.5222168 C-106.7267085 265.3024559 -104.81875329 264.08215345 -102.91113281 262.86132812 C-98.0502425 259.75335868 -93.18097582 256.65856791 -88.3125 253.5625 C-86.5793875 252.45969762 -84.84631331 251.35683504 -83.11328125 250.25390625 C-77.7421875 246.8359375 -72.37109375 243.41796875 -67 240 C-69.11186605 236.36652471 -71.20734779 233.59716915 -74.25 230.6875 C-77.08615857 227.91973754 -79.80841098 225.14415182 -82.375 222.125 C-85.26214762 218.75442302 -88.34246239 215.6149545 -91.5 212.5 C-95.26216134 208.78857583 -98.82809836 204.98141579 -102.2578125 200.9609375 C-104.2543789 198.71368115 -106.36012946 196.61105073 -108.5 194.5 C-124.83511277 178.35968415 -124.83511277 178.35968415 -125.09423828 173.07983398 C-125.08634277 172.30969971 -125.07844727 171.53956543 -125.0703125 170.74609375 C-124.80102673 158.37542017 -124.80102673 158.37542017 -130.796875 148.1015625 C-131.52390625 147.40804687 -132.2509375 146.71453125 -133 146 C-134.72732586 143.99212121 -136.43192239 141.97357571 -138.125 139.9375 C-139.06049827 138.83794603 -139.9967197 137.73900698 -140.93359375 136.640625 C-146.40039842 130.1862337 -151.68653044 123.58059267 -157 117 C-160.74689656 117.55066603 -163.10792383 118.48237465 -166.14453125 120.73046875 C-166.90443359 121.28669922 -167.66433594 121.84292969 -168.44726562 122.41601562 C-169.22779297 123.00060547 -170.00832031 123.58519531 -170.8125 124.1875 C-171.58142578 124.75275391 -172.35035156 125.31800781 -173.14257812 125.90039062 C-175.4361586 127.59009169 -177.71973602 129.29238039 -180 131 C-180.77778809 131.58217285 -181.55557617 132.1643457 -182.35693359 132.76416016 C-184.23907456 134.17462607 -186.12014453 135.5864902 -188 137 C-186.33735633 152.68668157 -183.10970513 172.19844488 -171.03515625 183.14453125 C-169.03374613 184.96923337 -167.31131067 186.87219924 -165.5625 188.9375 C-162.99334729 191.92801716 -160.30682744 194.73116684 -157.5 197.5 C-154.10115944 200.85291028 -150.9374927 204.31559679 -147.83984375 207.9453125 C-144.95919656 211.16234099 -141.83936295 214.13056038 -138.72265625 217.1171875 C-137 219 -137 219 -137 221 C-136.01 221.33 -135.02 221.66 -134 222 C-132.52734375 223.49609375 -132.52734375 223.49609375 -130.9375 225.4375 C-126.58292111 230.58636904 -121.80858638 235.27849064 -117 240 C-117.33 240.66 -117.66 241.32 -118 242 C-118.73863281 241.38253906 -119.47726562 240.76507812 -120.23828125 240.12890625 C-126.22719143 235.12736501 -132.23600977 230.15222191 -138.28125 225.21875 C-141.0454447 222.96291295 -143.80389936 220.70017244 -146.5625 218.4375 C-149.9220068 215.68838246 -153.29391746 212.95692119 -156.6875 210.25 C-160.33657408 207.33881136 -163.96949623 204.40867447 -167.59204102 201.46459961 C-168.94962666 200.36134729 -170.30819219 199.25929968 -171.66772461 198.15844727 C-175.28522263 195.22553637 -178.8798335 192.26944113 -182.4453125 189.2734375 C-183.16638184 188.67297607 -183.88745117 188.07251465 -184.63037109 187.45385742 C-186.01754482 186.29787932 -187.39837907 185.13424053 -188.77197266 183.9621582 C-189.39894043 183.44226318 -190.0259082 182.92236816 -190.671875 182.38671875 C-191.2194043 181.92483154 -191.76693359 181.46294434 -192.33105469 180.98706055 C-194.25065629 179.66062656 -194.25065629 179.66062656 -198 180 C-199.88698379 180.96635437 -199.88698379 180.96635437 -201.6953125 182.38671875 C-202.40179932 182.9062915 -203.10828613 183.42586426 -203.83618164 183.96118164 C-204.5914917 184.5308667 -205.34680176 185.10055176 -206.125 185.6875 C-207.75114129 186.88823863 -209.37744797 188.08875329 -211.00390625 189.2890625 C-211.83422363 189.9068457 -212.66454102 190.52462891 -213.52001953 191.16113281 C-217.34291281 193.9957491 -221.2018879 196.77959275 -225.0625 199.5625 C-225.79629883 200.09302979 -226.53009766 200.62355957 -227.28613281 201.17016602 C-233.33197184 205.53608948 -239.41680252 209.84547578 -245.51977539 214.13110352 C-246.51158813 214.82804321 -246.51158813 214.82804321 -247.5234375 215.5390625 C-248.43947754 216.18149902 -248.43947754 216.18149902 -249.37402344 216.83691406 C-250.72455943 217.80297314 -252.0427286 218.81409043 -253.3515625 219.8359375 C-255 221 -255 221 -257 221 C-256.7834375 222.04800781 -256.566875 223.09601563 -256.34375 224.17578125 C-256.06234693 225.55465627 -255.78110536 226.93356426 -255.5 228.3125 C-255.35691406 229.00279297 -255.21382813 229.69308594 -255.06640625 230.40429688 C-254.47374956 233.32524773 -254 236.01108122 -254 239 C-258.13475632 244.44715338 -264.1167341 248.60051197 -269.40625 252.84375 C-271.59524276 254.66351507 -273.59168493 256.51439806 -275.5625 258.5625 C-276.366875 259.366875 -277.17125 260.17125 -278 261 C-278.66 261 -279.32 261 -280 261 C-280 261.66 -280 262.32 -280 263 C-285.7471715 261.93937039 -290.40040501 258.20830849 -295.25 255.125 C-296.28125 254.48691406 -297.3125 253.84882812 -298.375 253.19140625 C-299.34953125 252.57394531 -300.3240625 251.95648437 -301.328125 251.3203125 C-302.2243457 250.75586426 -303.12056641 250.19141602 -304.04394531 249.60986328 C-304.68944336 249.0786084 -305.33494141 248.54735352 -306 248 C-306 245 -306 245 -304.19921875 243.0546875 C-303.37035156 242.33539062 -302.54148437 241.61609375 -301.6875 240.875 C-300.77226562 240.07707031 -299.85703125 239.27914062 -298.9140625 238.45703125 C-295.25566895 235.3724072 -291.54466546 232.35691914 -287.82421875 229.34765625 C-282.72627641 225.10994761 -277.68829937 220.68829937 -273 216 C-276.74991922 218.27403962 -280.49949272 220.54864801 -284.2487793 222.82373047 C-285.51789565 223.59373457 -286.78709804 224.36359688 -288.05639648 225.13330078 C-289.28946113 225.88105699 -290.52229978 226.62918599 -291.75491333 227.37768555 C-292.99053098 228.127056 -294.2272517 228.87461058 -295.46505737 229.62036133 C-298.56207204 231.49157086 -301.6265821 233.39588607 -304.65087891 235.3828125 C-305.23404373 235.75986328 -305.81720856 236.13691406 -306.41804504 236.52539062 C-308.01502879 237.56126887 -309.60222484 238.61219194 -311.1887207 239.6640625 C-314.45573745 241.21656928 -315.64022843 241.19385385 -319 240 C-320.91845703 239.06713867 -320.91845703 239.06713867 -322.7578125 237.91796875 C-323.80606201 237.27045654 -323.80606201 237.27045654 -324.87548828 236.60986328 C-325.61782715 236.1404834 -326.36016602 235.67110352 -327.125 235.1875 C-327.90472168 234.70265137 -328.68444336 234.21780273 -329.48779297 233.71826172 C-331.99735866 232.1540975 -334.49928274 230.57826662 -337 229 C-337.84691406 228.46745605 -338.69382812 227.93491211 -339.56640625 227.38623047 C-343.61435386 224.84081303 -347.6579419 222.28872309 -351.6953125 219.7265625 C-355.78493877 217.1318291 -359.88936494 214.56129553 -364 212 C-360.50926451 208.42599926 -356.88907964 205.08939746 -353.0625 201.875 C-352.49893799 201.39981934 -351.93537598 200.92463867 -351.35473633 200.43505859 C-346.7935179 196.61358229 -342.13823494 192.92263233 -337.44360352 189.26708984 C-332.91415763 185.73595301 -328.44843071 182.13252864 -324 178.5 C-318.93466246 174.36550363 -313.83940738 170.27614916 -308.6875 166.25 C-303.70310175 162.35457158 -298.78423284 158.39005444 -293.8984375 154.37109375 C-286.28153019 148.1400119 -278.58245312 142.00824831 -270.82543945 135.95263672 C-264.23311418 130.80560659 -257.76084431 125.52820613 -251.3190918 120.1940918 C-246.35085158 116.08881855 -241.32155917 112.07473232 -236.23828125 108.11328125 C-231.77910613 104.63145958 -227.38268454 101.07748756 -223 97.5 C-217.34258482 92.88353831 -211.65301301 88.31418294 -205.88476562 83.83666992 C-203.24552099 81.78515303 -200.66088813 79.71051426 -198.1171875 77.5390625 C-197.25351562 76.80429687 -196.38984375 76.06953125 -195.5 75.3125 C-194.7678125 74.66925781 -194.035625 74.02601563 -193.28125 73.36328125 C-190.26648924 71.56165196 -188.45555831 71.47961209 -185 72 C-182.98046875 73.58203125 -182.98046875 73.58203125 -181.1875 75.8125 C-180.506875 76.63878906 -179.82625 77.46507812 -179.125 78.31640625 C-178.42375 79.20199219 -177.7225 80.08757812 -177 81 C-175.56345755 82.75078612 -174.125931 84.50076516 -172.6875 86.25 C-171.95015625 87.15878906 -171.2128125 88.06757813 -170.453125 89.00390625 C-166.0390874 94.39493625 -161.51412371 99.69274053 -157 105 C-154.28288816 103.71314305 -151.89894781 102.30015564 -149.49609375 100.49609375 C-148.84294189 100.00681396 -148.18979004 99.51753418 -147.5168457 99.01342773 C-146.83066162 98.49337158 -146.14447754 97.97331543 -145.4375 97.4375 C-144.72875732 96.90390869 -144.02001465 96.37031738 -143.28979492 95.82055664 C-138.18806909 91.9580276 -133.21853458 87.97220956 -128.33203125 83.83984375 C-125.98901458 81.99133311 -123.59015564 80.47680277 -121 79 C-118.525 81.475 -118.525 81.475 -116 84 C-115.6596875 83.24074219 -115.319375 82.48148437 -114.96875 81.69921875 C-110.51516512 72.56700082 -110.51516512 72.56700082 -106.4375 71 C-104.97013634 70.61804579 -103.48841012 70.28927572 -102 70 C-100.10393266 69.56351529 -98.20812674 69.1258943 -96.3125 68.6875 C-94.66507813 68.32591797 -94.66507813 68.32591797 -92.984375 67.95703125 C-87.03436345 66.58454948 -81.18908432 64.79889713 -75.33520508 63.0690918 C-70.90346036 61.77240992 -66.58932275 60.61997441 -62 60 C-62.103125 58.948125 -62.20625 57.89625 -62.3125 56.8125 C-62 53 -62 53 -60.0625 50.5625 C-58.5465625 49.2940625 -58.5465625 49.2940625 -57 48 C-55.624127 46.75096098 -54.24921827 45.50085936 -52.875 44.25 C-48.68034353 40.54598704 -44.36487829 37.0092719 -40.01953125 33.484375 C-36.63839071 30.70247929 -33.31605789 27.8588104 -30 25 C-24.97723168 20.67300581 -19.90029892 16.42609972 -14.75390625 12.24609375 C-9.80088406 8.2063948 -4.90373149 4.0992799 0 0 Z " fill="#28586C" transform="translate(680,390)"/>
<path d="M0 0 C1.12921875 0.52851563 2.2584375 1.05703125 3.421875 1.6015625 C21.6319239 10.42352919 37.53642526 22.97243739 52 37 C52.83273437 37.79277344 53.66546875 38.58554687 54.5234375 39.40234375 C81.69140819 65.78216512 99.37405854 102.97755211 106 140 C106.20625 141.09054687 106.4125 142.18109375 106.625 143.3046875 C109.48920166 161.4844119 109.33649754 181.59888891 106.75 199.8125 C106.64083252 200.61719727 106.53166504 201.42189453 106.41918945 202.25097656 C105.8487486 205.6309789 105.4100992 207.60888688 102.890625 210.01171875 C102.26671875 210.33785156 101.6428125 210.66398438 101 211 C97.08790692 209.40584497 94.62781914 206.86106668 91.6875 203.875 C90.95901855 203.13685059 90.95901855 203.13685059 90.21582031 202.38378906 C86.87782777 198.97482259 83.70583647 195.45540844 80.609375 191.828125 C78.97413566 189.97062012 77.26518207 188.23393991 75.5 186.5 C73.20673964 184.24202057 71.03571972 181.94003496 68.9375 179.5 C64.88496541 174.80088124 60.63402542 170.29408809 56.3918457 165.76708984 C52.7776577 161.90859054 49.18718212 158.03156227 45.625 154.125 C40.46619575 148.47994616 35.22526305 142.9148807 29.97753906 137.35253906 C25.43260221 132.53175967 20.91966441 127.68365563 16.43334961 122.80834961 C12.68044552 118.73169035 8.90725676 114.67443604 5.125 110.625 C4.54105469 109.99980469 3.95710938 109.37460937 3.35546875 108.73046875 C1.57058645 106.82005627 -0.21463961 104.90996569 -2 103 C-8.74439542 95.78489433 -15.48715317 88.56857056 -22.1875 81.3125 C-22.670979 80.78994629 -23.15445801 80.26739258 -23.65258789 79.72900391 C-26.151206 77.02367619 -28.63037248 74.30309434 -31.0859375 71.55859375 C-31.58585205 71.00324951 -32.0857666 70.44790527 -32.60083008 69.87573242 C-33.97902575 68.34284366 -35.35104472 66.80440798 -36.72265625 65.265625 C-38.86571705 62.79759159 -38.86571705 62.79759159 -42 62 C-44.60794999 63.54613097 -44.60794999 63.54613097 -47.375 65.8125 C-47.90174316 66.22193848 -48.42848633 66.63137695 -48.97119141 67.05322266 C-50.08943322 67.9231864 -51.20443113 68.7973334 -52.31640625 69.67529297 C-53.92981144 70.94477333 -55.55511572 72.19646133 -57.1875 73.44140625 C-68.37346068 81.97362503 -79.42932535 90.6783157 -90.37646484 99.51464844 C-93.48307139 102.01645042 -96.61031913 104.47294047 -99.8125 106.8515625 C-101.04293716 107.77435002 -102.27212763 108.69880246 -103.5 109.625 C-104.09820557 110.07383545 -104.69641113 110.5226709 -105.31274414 110.98510742 C-108.88910938 113.78181997 -110.91059247 116.28875775 -112.9375 120.3125 C-116.46422767 125.96419269 -121.62166452 126.7707125 -127.75 128.25 C-130.83635716 128.96159517 -133.92665515 129.64947817 -137.02148438 130.32324219 C-152.92891111 133.93761816 -168.70396222 139.36970094 -180.67578125 150.83984375 C-183.5925228 153.55069766 -186.66852466 155.99723033 -189.8125 158.4375 C-190.36437988 158.87497559 -190.91625977 159.31245117 -191.48486328 159.76318359 C-194.30561899 161.94062418 -196.52539244 163.28361013 -200 164 C-201.9812227 161.73093351 -203.96013085 159.45992161 -205.9375 157.1875 C-206.52998535 156.50840576 -207.1224707 155.82931152 -207.73291016 155.12963867 C-211.22987255 151.10353689 -214.59078551 147.01310709 -217.875 142.8125 C-222.19339217 137.50907312 -225.5980082 134.92120443 -232.2890625 133.109375 C-237.11610789 132.96710419 -239.29382981 134.83561484 -242.75 137.875 C-243.35779297 138.38095703 -243.96558594 138.88691406 -244.59179688 139.40820312 C-245.82788144 140.43935447 -247.05715726 141.47872559 -248.27929688 142.52636719 C-250.65270348 144.55898386 -253.07617519 146.52795319 -255.5 148.5 C-256.79550781 149.56541016 -256.79550781 149.56541016 -258.1171875 150.65234375 C-261.5964768 153.48574872 -265.10387415 156.28134679 -268.625 159.0625 C-269.24181641 159.55234375 -269.85863281 160.0421875 -270.49414062 160.546875 C-274.88228085 164 -274.88228085 164 -276 164 C-276.7820529 152.29093021 -274.53745421 141.37371627 -272 130 C-271.81808105 129.18160645 -271.63616211 128.36321289 -271.44873047 127.52001953 C-264.34832746 96.44703157 -249.21760041 67.24491487 -227.08203125 44.22265625 C-224.9722195 42.18200917 -224.9722195 42.18200917 -224 40 C-223.34 40 -222.68 40 -222 40 C-221.7525 39.38125 -221.505 38.7625 -221.25 38.125 C-219.79371361 35.64931313 -218.62187494 35.04874998 -216 34 C-216 33.34 -216 32.68 -216 32 C-213.03317037 29.24126463 -209.81321681 26.78857647 -206.62939453 24.28515625 C-205.04446535 23.03507126 -203.47317348 21.76775666 -201.90234375 20.5 C-182.26644048 4.80662992 -159.22761675 -6.44532841 -135 -13 C-133.85917969 -13.31453125 -132.71835937 -13.6290625 -131.54296875 -13.953125 C-87.20533187 -25.56400809 -41.01751332 -19.21594106 0 0 Z " fill="#F67D20" transform="translate(724,318)"/>
<path d="M0 0 C2.15909307 1.36981489 4.27584003 2.78996395 6.38761902 4.23167419 C7.1817923 4.76442459 7.97596558 5.29717499 8.79420471 5.84606934 C11.3760195 7.58043606 13.95012348 9.32589499 16.52433777 11.07151794 C18.29764305 12.26551564 20.07148974 13.45870963 21.84587097 14.65110779 C25.36004123 17.01391241 28.87156827 19.38055937 32.38078308 21.75071716 C38.53564518 25.90564843 44.71558878 30.02223569 50.89933777 34.13401794 C52.65341466 35.30303278 54.40733045 36.47228938 56.16105652 37.64183044 C56.97340759 38.18291443 57.78575867 38.72399841 58.62272644 39.28147888 C60.52048345 40.54772392 62.41619017 41.81704324 64.31071472 43.08811951 C65.36089783 43.79162537 66.41108093 44.49513123 67.49308777 45.21995544 C68.44634949 45.85981384 69.39961121 46.49967224 70.38175964 47.15892029 C73.22245025 49.01595561 76.112162 50.76686401 79.02433777 52.50901794 C87.08988519 57.84320468 94.38210538 65.30081623 100.21183777 73.00901794 C100.21183777 73.66901794 100.21183777 74.32901794 100.21183777 75.00901794 C101.20183777 75.33901794 102.19183777 75.66901794 103.21183777 76.00901794 C104.61418152 77.39964294 104.61418152 77.39964294 106.14933777 79.25901794 C109.33355594 83.01304357 112.61418753 86.65163622 115.96183777 90.25901794 C116.72850769 91.08828796 116.72850769 91.08828796 117.51066589 91.93431091 C120.08505245 94.71840874 122.66610591 97.49603971 125.25480652 100.26683044 C126.21972375 101.30582471 127.18457042 102.3448845 128.14933777 103.38401794 C129.00398621 104.29925232 129.85863464 105.21448669 130.73918152 106.15745544 C133.47605403 109.31372232 135.83203343 112.57767216 138.21183777 116.00901794 C129.6534485 123.4817276 121.06524369 130.88579946 112.21183777 138.00901794 C109.25871838 136.698063 107.38419168 135.37491515 105.29386902 132.91917419 C104.76559509 132.30437195 104.23732117 131.6895697 103.69303894 131.05613708 C103.14236755 130.40121277 102.59169617 129.74628845 102.02433777 129.07151794 C101.45497498 128.40434753 100.88561218 127.73717712 100.29899597 127.04978943 C95.52385608 121.43502022 90.83229113 115.75175197 86.21183777 110.00901794 C82.09133941 111.419639 79.2630703 113.38906332 75.89933777 116.13401794 C66.66555008 123.48716007 56.6745444 129.77715397 46.82218933 136.2575531 C44.54347147 137.78650203 42.32079273 139.3644422 40.11027527 140.98948669 C37.21183777 143.00901794 37.21183777 143.00901794 35.21183777 143.00901794 C35.54183777 140.03901794 35.87183777 137.06901794 36.21183777 134.00901794 C29.53942793 137.17585237 23.38028185 140.92773402 17.14933777 144.88401794 C9.04290249 149.99286475 0.90912643 155.04722104 -7.28816223 160.00901794 C-15.33008866 164.88100249 -23.32225731 169.82624738 -31.28816223 174.82151794 C-34.22852866 176.65889253 -37.16942502 178.49541616 -40.11042786 180.33177185 C-42.57601635 181.87613664 -45.03390435 183.43211764 -47.49128723 184.98948669 C-48.83976844 185.83009632 -50.18868756 186.67000411 -51.53816223 187.50901794 C-52.42278137 188.07906555 -52.42278137 188.07906555 -53.32527161 188.66062927 C-55.6103786 190.06493263 -57.23287079 191.0270274 -59.95613098 190.93870544 C-62.20013068 189.79995933 -63.62483111 188.4640939 -65.35066223 186.63401794 C-65.92945129 186.02815857 -66.50824036 185.42229919 -67.10456848 184.79808044 C-67.66015442 184.20768982 -68.21574036 183.61729919 -68.78816223 183.00901794 C-69.35406067 182.48050232 -69.91995911 181.95198669 -70.50300598 181.40745544 C-71.78816223 180.00901794 -71.78816223 180.00901794 -71.78816223 178.00901794 C-72.77816223 177.67901794 -73.76816223 177.34901794 -74.78816223 177.00901794 C-76.19050598 175.58323669 -76.19050598 175.58323669 -77.72566223 173.69651794 C-80.90658412 169.93479078 -84.28196629 166.46196622 -87.78816223 163.00901794 C-91.86213592 158.98687759 -95.77748821 154.90220075 -99.48347473 150.53245544 C-100.53088204 149.30943493 -101.64955755 148.14762263 -102.78816223 147.00901794 C-102.46917278 143.0180868 -101.01403547 140.44771704 -98.76081848 137.20042419 C-98.13763733 136.29437439 -97.51445618 135.38832458 -96.87239075 134.45481873 C-96.20522034 133.50332947 -95.53804993 132.55184021 -94.85066223 131.57151794 C-94.17640198 130.59682556 -93.50214172 129.62213318 -92.80744934 128.61790466 C-87.54342674 121.02803519 -82.21104406 113.48621501 -76.78816223 106.00901794 C-72.18719204 108.4698005 -68.71647061 111.68893714 -64.97566223 115.25901794 C-63.71987343 116.44077482 -62.46336939 117.62177213 -61.20613098 118.80198669 C-60.60977844 119.36321228 -60.0134259 119.92443787 -59.39900208 120.50267029 C-55.26956526 124.36423821 -50.95979715 128.01434871 -46.65144348 131.67308044 C-45.46748518 132.68046465 -44.2839044 133.68829269 -43.10066223 134.69651794 C-42.50100647 135.20730896 -41.90135071 135.71809998 -41.28352356 136.24436951 C-37.08693575 139.84064553 -33.00984078 143.54462423 -28.97566223 147.32151794 C-24.13052901 151.85677948 -19.14456146 156.07822368 -13.78816223 160.00901794 C-19.71463725 152.74986997 -25.66504568 145.51076861 -31.62580872 138.2797699 C-34.92034417 134.28190164 -38.20448583 130.27604605 -41.47566223 126.25901794 C-44.29605552 122.80719332 -47.14463848 119.38145112 -50.02278137 115.97776794 C-50.98053811 114.84474703 -51.93552465 113.70937778 -52.88752747 112.57151794 C-54.80944587 110.28432164 -56.73934015 108.05774773 -58.85456848 105.94651794 C-61.86931637 102.92477528 -62.76987426 101.39306531 -62.97566223 97.07151794 C-62.63516903 95.37198723 -62.2277798 93.68564452 -61.78816223 92.00901794 C-61.64443176 91.38688416 -61.50070129 90.76475037 -61.35261536 90.12376404 C-58.02222712 75.93617641 -58.02222712 75.93617641 -52.85066223 72.69651794 C-51.51403356 72.09352756 -50.1598096 71.52743585 -48.78816223 71.00901794 C-47.73628723 70.41089294 -46.68441223 69.81276794 -45.60066223 69.19651794 C-42.58336831 67.9225494 -41.01717025 67.63831612 -37.78816223 68.00901794 C-35.68269348 69.51292419 -35.68269348 69.51292419 -33.60066223 71.57151794 C-28.54607022 76.33776075 -23.03722824 80.88448494 -16.78816223 84.00901794 C-17.15167786 83.34370056 -17.51519348 82.67838318 -17.88972473 81.99290466 C-19.53553032 78.96346187 -21.16194551 75.92401767 -22.78816223 72.88401794 C-23.36050598 71.83729919 -23.93284973 70.79058044 -24.52253723 69.71214294 C-25.06394348 68.69378357 -25.60534973 67.67542419 -26.16316223 66.62620544 C-26.66589661 65.69405212 -27.16863098 64.7618988 -27.68659973 63.80149841 C-28.94014047 60.62375041 -29.09180206 58.3977311 -28.78816223 55.00901794 C-27.70941167 52.58182919 -26.61373341 50.41440318 -25.28816223 48.13401794 C-24.55691583 46.82397874 -23.82782447 45.51273478 -23.10066223 44.20042419 C-22.53218567 43.18166199 -22.53218567 43.18166199 -21.95222473 42.14231873 C-19.96564413 38.50164311 -18.12833617 34.78776758 -16.28816223 31.07151794 C-15.93818176 30.36720642 -15.58820129 29.6628949 -15.22761536 28.9372406 C-14.41264103 27.29540349 -13.60011218 25.65235282 -12.78816223 24.00901794 C-8.92563446 25.60699043 -6.20625323 28.23071772 -3.22566223 31.07151794 C1.46164468 35.45450078 6.27865313 39.58724004 11.27824402 43.61448669 C15.33533073 46.92606346 19.29994828 50.341129 23.26603699 53.76072693 C26.8853587 56.88001767 30.53347716 59.95948449 34.21183777 63.00901794 C30.67027995 58.12741123 26.94538401 53.46488542 23.02433777 48.88401794 C19.13911371 44.34252844 15.37782174 39.72917743 11.71183777 35.00901794 C8.09851587 30.36110967 4.40498339 25.80284681 0.58683777 21.32151794 C0.13590759 20.79122986 -0.31502258 20.26094177 -0.77961731 19.71458435 C-2.56569545 17.61578893 -4.35288429 15.51796554 -6.14411926 13.42356873 C-7.4285503 11.91653429 -8.70233853 10.40044883 -9.97566223 8.88401794 C-10.71171692 8.01518982 -11.44777161 7.14636169 -12.20613098 6.25120544 C-13.78816223 4.00901794 -13.78816223 4.00901794 -13.78816223 1.00901794 C-8.56781941 -1.54997363 -5.48795152 -3.04136917 0 0 Z " fill="#FDFDFD" transform="translate(679.7881622314453,432.99098205566406)"/>
<path d="M0 0 C11.88 0 23.76 0 36 0 C41.10055643 19.25720286 45.72263061 38.54651617 50 58 C50.17015625 57.27337158 50.3403125 56.54674316 50.515625 55.7980957 C54.92254349 37.06136678 59.79558339 18.53502758 65 0 C76.55 0 88.1 0 100 0 C101.69666625 19.26928101 102.58761983 38.50783259 103.30224609 57.83569336 C103.37946072 59.89829058 103.45708692 61.96087245 103.53515625 64.0234375 C103.57251892 65.01068314 103.60988159 65.99792877 103.64837646 67.01509094 C103.8775809 72.77171709 104.19807255 78.49840542 104.81420898 84.22900391 C105.09902491 88.47691553 105 92.74255085 105 97 C96.42 97 87.84 97 79 97 C78.01 62.35 78.01 62.35 77 27 C75.68 32.61 74.36 38.22 73 44 C71.93574618 47.66907087 70.85097681 51.30240809 69.6875 54.9375 C66.6001343 64.80740634 63.85187827 74.74700309 61.22143555 84.74780273 C60.94468994 85.79653564 60.66794434 86.84526855 60.3828125 87.92578125 C60.01760498 89.32437378 60.01760498 89.32437378 59.64501953 90.7512207 C59 93 59 93 58 95 C51.07 95 44.14 95 37 95 C35.33425473 87.92425857 33.67284059 80.84753194 32.01865578 73.76907825 C31.25006525 70.48093239 30.47971742 67.19322072 29.70507812 63.90649414 C28.81172836 60.11191897 27.92482353 56.31588409 27.0390625 52.51953125 C26.62800766 50.78277885 26.62800766 50.78277885 26.20864868 49.01094055 C25.94852997 47.89076035 25.68841125 46.77058014 25.42041016 45.61645508 C25.19390778 44.65048904 24.9674054 43.68452301 24.73403931 42.68928528 C23.63398566 37.16041005 22.85718425 31.57169763 22 26 C21.01 49.43 20.02 72.86 19 97 C11.08 97 3.16 97 -5 97 C-5.19888532 84.99770343 -4.52031969 73.10580362 -3.77319336 61.13085938 C-3.56211137 57.74376388 -3.35769761 54.35631461 -3.15429688 50.96875 C-3.02122227 48.78643458 -2.88777174 46.60414205 -2.75390625 44.421875 C-2.6934462 43.42371765 -2.63298615 42.4255603 -2.57069397 41.39715576 C-2.23063182 35.98276575 -1.77834759 30.59576326 -1.21620178 25.20007324 C-0.94751043 22.46586516 -0.79402119 19.73709816 -0.68359375 16.9921875 C-0.64548584 16.0832373 -0.60737793 15.17428711 -0.56811523 14.23779297 C-0.52501221 13.12807129 -0.48190918 12.01834961 -0.4375 10.875 C-0.293125 7.28625 -0.14875 3.6975 0 0 Z " fill="#28586C" transform="translate(291,786)"/>
<path d="M0 0 C2.00543734 0.00315932 4.00939205 -0.02039238 6.01464844 -0.0456543 C18.28273968 -0.05170365 32.63588389 1.17978736 42.26074219 9.76098633 C48.29338667 16.5991768 49.18168855 22.84381413 48.99121094 31.67504883 C48.11625815 40.73567102 43.05227844 45.46324079 36.32714844 51.12817383 C35.44027344 51.85004883 34.55339844 52.57192383 33.63964844 53.31567383 C34.69152344 54.07879883 35.74339844 54.84192383 36.82714844 55.62817383 C47.79990367 65.27891036 49.89768059 84.60583457 52.63964844 98.31567383 C43.72964844 98.31567383 34.81964844 98.31567383 25.63964844 98.31567383 C24.73214844 95.44879883 23.82464844 92.58192383 22.88964844 89.62817383 C22.59106934 88.69078369 22.29249023 87.75339355 21.98486328 86.78759766 C20.76877713 82.95985897 19.56970672 79.13392251 18.49121094 75.26489258 C18.16894531 74.12665039 17.84667969 72.9884082 17.51464844 71.81567383 C17.24394531 70.81536133 16.97324219 69.81504883 16.69433594 68.78442383 C15.67020766 65.81780411 15.67020766 65.81780411 11.63964844 63.31567383 C8.00964844 62.65567383 4.37964844 61.99567383 0.63964844 61.31567383 C0.63964844 73.19567383 0.63964844 85.07567383 0.63964844 97.31567383 C-7.61035156 97.31567383 -15.86035156 97.31567383 -24.36035156 97.31567383 C-24.36035156 65.96567383 -24.36035156 34.61567383 -24.36035156 2.31567383 C-15.76352569 0.75261458 -8.57581687 -0.02814135 0 0 Z " fill="#27586B" transform="translate(831.3603515625,784.684326171875)"/>
<path d="M0 0 C20.79 0 41.58 0 63 0 C63 6.93 63 13.86 63 21 C50.79 21 38.58 21 26 21 C26 26.28 26 31.56 26 37 C37.55 37 49.1 37 61 37 C61 43.93 61 50.86 61 58 C49.45 58 37.9 58 26 58 C26 63.61 26 69.22 26 75 C38.87 75 51.74 75 65 75 C65 82.26 65 89.52 65 97 C43.55 97 22.1 97 0 97 C0 64.99 0 32.98 0 0 Z " fill="#29596C" transform="translate(714,786)"/>
<path d="M0 0 C1.04865234 0.00322266 2.09730469 0.00644531 3.17773438 0.00976562 C11.10725453 0.15215329 17.86416885 1.23354262 25.1875 4.4375 C24.52394956 11.18359618 23.46884207 17.78198534 22.1875 24.4375 C18.71759388 25.64199615 16.80222726 25.18452555 13.375 24 C6.4545697 21.97610057 -0.65946193 21.5699496 -7.8125 22.4375 C-10.22594858 23.66670588 -10.22594858 23.66670588 -11.8125 25.4375 C-12.56271244 27.89382332 -12.56271244 27.89382332 -11.8125 30.4375 C-6.8541479 35.38560757 -0.12348058 37.37847235 6.26367188 39.90625 C15.88486502 43.85128403 24.70983253 49.29628055 29 59.1875 C31.511124 66.77859899 30.76976931 73.82768056 27.49609375 81.0546875 C22.13746351 90.81219332 13.93546274 95.36774672 3.46875 98.578125 C-1.45825695 99.72813042 -6.33325087 99.81998426 -11.375 99.8125 C-12.81504395 99.81334595 -12.81504395 99.81334595 -14.28417969 99.81420898 C-23.08512387 99.67968069 -31.84251926 98.42249037 -39.8125 94.4375 C-39.20205672 86.80695905 -37.01628179 79.73560526 -34.8125 72.4375 C-33.73613281 72.7984375 -32.65976562 73.159375 -31.55078125 73.53125 C-16.37836099 78.60958226 -16.37836099 78.60958226 -1.0625 76 C1.05826611 74.62588907 1.05826611 74.62588907 2.1875 73.4375 C2.68845023 70.56443772 2.68845023 70.56443772 2.1875 67.4375 C-1.44206578 63.9102716 -5.23189747 62.30131346 -9.9375 60.5625 C-21.51817279 56.0951025 -30.92386769 51.65040228 -37.47265625 40.6484375 C-40.1080942 34.33260662 -39.98583318 26.40878152 -38.05078125 19.859375 C-37.10703957 17.90474796 -36.07630174 16.19889615 -34.8125 14.4375 C-34.255625 13.57125 -33.69875 12.705 -33.125 11.8125 C-23.8574046 2.29442905 -12.90768421 -0.12371582 0 0 Z " fill="#28586C" transform="translate(560.8125,784.5625)"/>
<path d="M0 0 C9.9 0 19.8 0 30 0 C30.91523437 2.41957031 31.83046875 4.83914063 32.7734375 7.33203125 C33.66283782 9.67555454 34.55352384 12.01858531 35.44433594 14.36157227 C36.06254513 15.98964207 36.67941731 17.61822022 37.29492188 19.24731445 C38.18007662 21.58940537 39.07003007 23.92962354 39.9609375 26.26953125 C40.23497406 26.99775589 40.50901062 27.72598053 40.79135132 28.47627258 C41.97777774 31.5800025 43.14822267 34.22233401 45 37 C45.32613281 35.9378125 45.65226563 34.875625 45.98828125 33.78125 C46.88782175 30.86636626 47.79287707 27.95330441 48.70703125 25.04296875 C48.9181958 24.37031982 49.12936035 23.6976709 49.34692383 23.00463867 C50.45004582 19.61856963 51.69579658 16.31485036 53 13 C54.65 8.71 56.3 4.42 58 0 C67.57 0 77.14 0 87 0 C85.52369266 4.42892201 84.21071316 7.71091843 81.98046875 11.68359375 C81.37605957 12.7627002 80.77165039 13.84180664 80.14892578 14.95361328 C79.50165527 16.1032959 78.85438477 17.25297852 78.1875 18.4375 C77.51670929 19.66055223 76.84729522 20.88436041 76.17919922 22.10888672 C73.07587336 27.76167131 69.94574022 33.2201646 66.15234375 38.44921875 C53.61968285 56.40727399 55.38495608 75.9372664 56 97 C47.42 97 38.84 97 30 97 C30.10183594 94.36515625 30.20367188 91.7303125 30.30859375 89.015625 C30.87820976 66.03820729 28.9009397 50.74175616 16.06738281 31.25830078 C12.53129695 25.68524906 9.61329837 19.81917632 6.625 13.9375 C6.07231445 12.87724609 5.51962891 11.81699219 4.95019531 10.72460938 C1.13469788 3.40409364 1.13469788 3.40409364 0 0 Z " fill="#28586C" transform="translate(898,786)"/>
<path d="M0 0 C9.9 0 19.8 0 30 0 C31.85751193 4.90913867 33.71092014 9.81944042 35.55419922 14.73388672 C36.18237501 16.40502241 36.81289236 18.07527986 37.44580078 19.74462891 C38.35547001 22.1451846 39.2566534 24.54877947 40.15625 26.953125 C40.44060913 27.69806213 40.72496826 28.44299927 41.01794434 29.21051025 C42.32093553 32.71705094 43 35.21102695 43 39 C43.66 39 44.32 39 45 39 C45.11408203 37.9982373 45.22816406 36.99647461 45.34570312 35.96435547 C45.91556413 31.99859571 47.10293644 28.32606296 48.46875 24.5703125 C48.70911987 23.89451141 48.94948975 23.21871033 49.19714355 22.52243042 C49.70171561 21.1079129 50.20944764 19.6945189 50.72021484 18.28222656 C51.50448013 16.11260601 52.27838237 13.93949494 53.05078125 11.765625 C53.54367469 10.38780743 54.03714348 9.01019551 54.53125 7.6328125 C54.76356323 6.98184601 54.99587646 6.33087952 55.23522949 5.66018677 C56.88354374 1.11645626 56.88354374 1.11645626 58 0 C60.14558827 -0.08775605 62.29404421 -0.10695219 64.44140625 -0.09765625 C65.74658203 -0.09443359 67.05175781 -0.09121094 68.39648438 -0.08789062 C69.7851569 -0.07953401 71.17382877 -0.07106905 72.5625 -0.0625 C73.95507656 -0.05748666 75.34765481 -0.05292347 76.74023438 -0.04882812 C80.1601987 -0.03699434 83.58007844 -0.0205088 87 0 C85.67108972 3.47549215 84.15371762 6.72871874 82.3828125 10 C81.86380371 10.95994873 81.34479492 11.91989746 80.81005859 12.90893555 C80.25398926 13.92898682 79.69791992 14.94903809 79.125 16 C78.55217285 17.05421143 77.9793457 18.10842285 77.38916016 19.19458008 C62.13504475 47.15627337 62.13504475 47.15627337 58.37817383 52.16015625 C56.3700404 56.29808505 56.52080663 60.13086595 56.48828125 64.67578125 C56.47033005 65.6009404 56.45237885 66.52609955 56.43388367 67.47929382 C56.37985921 70.42365003 56.34591009 73.36784484 56.3125 76.3125 C56.27931999 78.31317346 56.2448297 80.31382565 56.20898438 82.31445312 C56.12167878 87.20965764 56.06154319 92.10413297 56 97 C47.42 97 38.84 97 30 97 C30.13535156 93.13861328 30.13535156 93.13861328 30.2734375 89.19921875 C30.75499353 67.1654194 29.08215414 51.84017728 16.91308594 33.02099609 C13.77129202 28.0597202 11.07332543 22.86691049 8.3125 17.6875 C7.35268684 15.94007129 6.39062606 14.19387427 5.42578125 12.44921875 C0 2.54442297 0 2.54442297 0 0 Z " fill="#28586C" transform="translate(418,786)"/>
<path d="M0 0 C25.08 0 50.16 0 76 0 C76 7.26 76 14.52 76 22 C67.75 22 59.5 22 51 22 C51 46.75 51 71.5 51 97 C42.42 97 33.84 97 25 97 C25 72.25 25 47.5 25 22 C16.75 22 8.5 22 0 22 C0 14.74 0 7.48 0 0 Z " fill="#28586C" transform="translate(612,786)"/>
<path d="M0 0 C4.18179492 1.59921374 6.76728418 4.68877156 9.6875 7.9375 C10.22004395 8.52160645 10.75258789 9.10571289 11.30126953 9.70751953 C14.43939376 13.17766051 17.448238 16.72341139 20.375 20.375 C25.2029949 26.39237321 30.48466249 31.94625457 35.76953125 37.55859375 C39.28136417 41.28910121 42.70007108 45.08036611 46 49 C46.79664063 49.94101562 47.59328125 50.88203125 48.4140625 51.8515625 C55 59.74245356 55 59.74245356 55 62 C50.33693614 60.39173713 46.5198061 57.88874635 42.4375 55.1875 C40.91537346 54.19139269 39.39323765 53.19529953 37.87109375 52.19921875 C37.07558105 51.67634277 36.28006836 51.1534668 35.46044922 50.61474609 C31.31650973 47.89515731 27.15719726 45.19925912 23 42.5 C21.32809127 41.41281229 19.65621618 40.32557283 17.984375 39.23828125 C10.66408193 34.48009076 3.33241745 29.73947708 -4 25 C-2.53515625 13.28125 -2.53515625 13.28125 -2.26611328 11.15625 C-2.08369458 9.67815643 -1.91066309 8.19888282 -1.74560547 6.71875 C-1.10532407 1.10532407 -1.10532407 1.10532407 0 0 Z " fill="#F6F8F9" transform="translate(682,400)"/>
<path d="M0 0 C2.31 0 4.62 0 7 0 C8.49039916 4.01675821 9.96528618 8.03904463 11.4375 12.0625 C12.06881836 13.7630957 12.06881836 13.7630957 12.71289062 15.49804688 C14.72187306 21.01069468 16.5317525 26.13413582 17 32 C17.66 32 18.32 32 19 32 C19.0721875 31.10023438 19.144375 30.20046875 19.21875 29.2734375 C20.05086293 23.45743692 22.40065327 18.07810189 24.5 12.625 C25.12455078 10.96791016 25.12455078 10.96791016 25.76171875 9.27734375 C28.85114397 1.14885603 28.85114397 1.14885603 30 0 C32.33297433 -0.04092937 34.66705225 -0.04241723 37 0 C37.28898189 4.37392531 37.57362542 8.74810646 37.85449219 13.12255859 C37.95034565 14.6063574 38.04732291 16.09008411 38.14550781 17.57373047 C38.68412605 25.72445344 39.1289764 33.8261207 39 42 C37.35 42 35.7 42 34 42 C33.04594663 39.13783989 32.82366879 37.12411361 32.71875 34.140625 C32.66267578 32.71363281 32.66267578 32.71363281 32.60546875 31.2578125 C32.57066406 30.26523437 32.53585937 29.27265625 32.5 28.25 C32.43042524 26.2967531 32.35757998 24.34361958 32.28125 22.390625 C32.25095703 21.52469727 32.22066406 20.65876953 32.18945312 19.76660156 C31.96539608 16.49467568 31.46380385 13.24662695 31 10 C27.37 20.23 23.74 30.46 20 41 C18.35 41 16.7 41 15 41 C11.7 30.77 8.4 20.54 5 10 C4.29857549 13.50712253 3.84874152 16.37203997 3.71875 19.87109375 C3.68136719 20.77537109 3.64398437 21.67964844 3.60546875 22.61132812 C3.57066406 23.54396484 3.53585937 24.47660156 3.5 25.4375 C3.08167229 36.6006525 3.08167229 36.6006525 2 42 C0.35 42 -1.3 42 -3 42 C-3.02714735 39.77090129 -3.04646254 37.54170633 -3.0625 35.3125 C-3.07990234 33.45044922 -3.07990234 33.45044922 -3.09765625 31.55078125 C-3.01353789 28.49223772 -2.59832035 25.97608973 -2 23 C-1.79623802 21.16279358 -1.61920256 19.32248388 -1.46484375 17.48046875 C-1.37783203 16.45888672 -1.29082031 15.43730469 -1.20117188 14.38476562 C-1.11416016 13.32966797 -1.02714844 12.27457031 -0.9375 11.1875 C-0.80118164 9.57584961 -0.80118164 9.57584961 -0.66210938 7.93164062 C-0.4388655 5.28796318 -0.21824971 2.64409364 0 0 Z " fill="#F68731" transform="translate(530,924)"/>
<path d="M0 0 C2.31 0 4.62 0 7 0 C10.71269567 8.55576846 13.89015488 17.20794016 16.8125 26.0625 C17.42254883 27.87524414 17.42254883 27.87524414 18.04492188 29.72460938 C18.42841797 30.87896484 18.81191406 32.03332031 19.20703125 33.22265625 C19.5522583 34.26172119 19.89748535 35.30078613 20.25317383 36.37133789 C21 39 21 39 21 42 C19.02 42 17.04 42 15 42 C14.49487756 40.39743892 13.99608373 38.79288208 13.5 37.1875 C13.2215625 36.29417969 12.943125 35.40085937 12.65625 34.48046875 C12 32 12 32 12 29 C6.72 29 1.44 29 -4 29 C-4.7115625 31.6915625 -4.7115625 31.6915625 -5.4375 34.4375 C-6.875 39.875 -6.875 39.875 -8 41 C-9.66617115 41.04063832 -11.33388095 41.042721 -13 41 C-12.05292798 36.08636751 -10.94749171 31.62758247 -8.84765625 27.05859375 C-7.29403357 23.2855101 -6.22394704 19.34982566 -5.05078125 15.4453125 C-3.47004871 10.2623902 -1.7383447 5.13181546 0 0 Z " fill="#F68934" transform="translate(612,924)"/>
<path d="M0 0 C1.134375 0.020625 2.26875 0.04125 3.4375 0.0625 C6.96688763 10.06591227 10.47818761 20.0756644 13.875 30.125 C14.13361816 30.87958496 14.39223633 31.63416992 14.65869141 32.41162109 C15.66627036 35.41502129 16.4375 37.87180796 16.4375 41.0625 C14.4575 41.0625 12.4775 41.0625 10.4375 41.0625 C9.4475 37.1025 8.4575 33.1425 7.4375 29.0625 C2.1575 29.0625 -3.1225 29.0625 -8.5625 29.0625 C-8.871875 30.465 -9.18125 31.8675 -9.5 33.3125 C-10.14599094 36.24099225 -10.82260787 39.15625703 -11.5625 42.0625 C-13.5425 42.0625 -15.5225 42.0625 -17.5625 42.0625 C-16.89639197 37.073057 -15.51850613 32.58500927 -13.875 27.85546875 C-13.61243408 27.08946854 -13.34986816 26.32346832 -13.0793457 25.53425598 C-12.52684136 23.92578489 -11.97203227 22.31810381 -11.41503906 20.71118164 C-10.55986195 18.24238427 -9.71300076 15.77084723 -8.8671875 13.29882812 C-8.32861169 11.73420739 -7.78956589 10.16974833 -7.25 8.60546875 C-6.99581299 7.86387009 -6.74162598 7.12227142 -6.47973633 6.35820007 C-4.29460504 0.07534395 -4.29460504 0.07534395 0 0 Z " fill="#F68833" transform="translate(841.5625,923.9375)"/>
<path d="M0 0 C1.98 0 3.96 0 6 0 C6 5.61 6 11.22 6 17 C12.27 17 18.54 17 25 17 C25 11.39 25 5.78 25 0 C26.98 0 28.96 0 31 0 C31 13.86 31 27.72 31 42 C29.02 42 27.04 42 25 42 C25 35.73 25 29.46 25 23 C18.73 23 12.46 23 6 23 C6 29.27 6 35.54 6 42 C4.02 42 2.04 42 0 42 C0 28.14 0 14.28 0 0 Z " fill="#F78F3E" transform="translate(424,924)"/>
<path d="M0 0 C1.134375 0.020625 2.26875 0.04125 3.4375 0.0625 C5.13204818 5.09660749 6.82260539 10.13203104 8.50952148 15.16870117 C9.08362823 16.8809806 9.6588128 18.59289905 10.23510742 20.30444336 C11.06454374 22.76842027 11.89006115 25.23368076 12.71484375 27.69921875 C12.97216782 28.46086838 13.22949188 29.22251801 13.49461365 30.00724792 C14.71661238 33.67247554 15.79985289 37.23992121 16.4375 41.0625 C14.4575 41.0625 12.4775 41.0625 10.4375 41.0625 C9.4475 37.1025 8.4575 33.1425 7.4375 29.0625 C2.1575 29.0625 -3.1225 29.0625 -8.5625 29.0625 C-8.871875 30.485625 -9.18125 31.90875 -9.5 33.375 C-10.07449363 36.01767072 -10.70552306 38.49156918 -11.5625 41.0625 C-13.2125 41.0625 -14.8625 41.0625 -16.5625 41.0625 C-15.27926497 32.95144056 -12.82558013 25.29605629 -10.1940918 17.5456543 C-9.49145161 15.47480586 -8.79880332 13.40080327 -8.10742188 11.32617188 C-4.32944099 0.07595511 -4.32944099 0.07595511 0 0 Z " fill="#F68731" transform="translate(731.5625,923.9375)"/>
<path d="M0 0 C3.5578125 -0.0928125 3.5578125 -0.0928125 7.1875 -0.1875 C8.29387817 -0.22846802 8.29387817 -0.22846802 9.42260742 -0.27026367 C13.83935173 -0.32573392 16.52119467 0.27164994 20 3 C22.69221931 7.03832896 22.78523368 10.25621714 22 15 C20.27337414 18.51253501 17.84830694 20.55564874 14.375 22.375 C9.65898923 23.24833533 4.79619351 23 0 23 C0 15.41 0 7.82 0 0 Z " fill="#F7F9F9" transform="translate(832,805)"/>
<path d="M0 0 C1.98 0 3.96 0 6 0 C8.97 5.94 11.94 11.88 15 18 C17.71967771 14.37376306 19.71967437 10.79246435 21.6875 6.75 C22.16799805 5.77546875 22.16799805 5.77546875 22.65820312 4.78125 C23.44247141 3.18930243 24.22174255 1.59489471 25 0 C26.98 0 28.96 0 31 0 C30.01543175 3.62321116 28.73518605 6.57865663 26.65234375 9.671875 C19.5853733 20.20251428 17.49720553 28.35619798 18 41 C16.35 41 14.7 41 13 41 C13.06703125 40.02804687 13.1340625 39.05609375 13.203125 38.0546875 C13.54513087 24.6272396 8.01595734 15.18828872 1.08569336 3.97680664 C0 2 0 2 0 0 Z " fill="#F6842C" transform="translate(771,924)"/>
<path d="M0 0 C0.66 0 1.32 0 2 0 C3.48046875 1.65234375 3.48046875 1.65234375 5.1875 3.9375 C5.80109375 4.74960937 6.4146875 5.56171875 7.046875 6.3984375 C7.69140625 7.25695312 8.3359375 8.11546875 9 9 C10.30933562 10.68995643 11.62166978 12.37759545 12.9375 14.0625 C13.95833333 15.375 14.97916667 16.6875 16 18 C14.44200307 21.76878586 12.090634 24.11271145 9.1875 26.9375 C8.33542969 27.77152344 7.48335938 28.60554688 6.60546875 29.46484375 C5.74566406 30.30144531 4.88585937 31.13804687 4 32 C2.33102653 33.66435667 0.66367714 35.33034916 -1 37 C-1.11739981 24.61702895 -0.97815251 12.3491755 0 0 Z " fill="#EFF3F4" transform="translate(490,477)"/>
<path d="M0 0 C1.65 0 3.3 0 5 0 C5 12.21 5 24.42 5 37 C10.94 37 16.88 37 23 37 C23 38.32 23 39.64 23 41 C15.41 41 7.82 41 0 41 C0 27.47 0 13.94 0 0 Z " fill="#F68125" transform="translate(664,924)"/>
<path d="M0 0 C1.65 0 3.3 0 5 0 C5 13.53 5 27.06 5 41 C3.35 41 1.7 41 0 41 C0 27.47 0 13.94 0 0 Z " fill="#F68126" transform="translate(489,924)"/>
<path d="M0 0 C1.74067543 3.25396534 2.95494992 6.56535032 4.125 10.0625 C4.47820313 11.10535156 4.83140625 12.14820313 5.1953125 13.22265625 C6 16 6 16 6 19 C2.37 19 -1.26 19 -5 19 C-3.57142857 3.57142857 -3.57142857 3.57142857 0 0 Z " fill="#FEF3EB" transform="translate(731,929)"/>
<path d="M0 0 C3.12569907 5.98077485 5.14111602 12.30070495 6 19 C2.04 19 -1.92 19 -6 19 C-4.29446483 12.50272314 -2.47390635 6.2436684 0 0 Z " fill="#FEF4ED" transform="translate(841,929)"/>
<path d="M0 0 C2.5872505 2.5872505 3.06556087 4.88277471 4.125 8.375 C4.47820313 9.51710938 4.83140625 10.65921875 5.1953125 11.8359375 C6 15 6 15 6 19 C2.37 19 -1.26 19 -5 19 C-3.64746536 12.54945018 -1.96939767 6.28894321 0 0 Z " fill="#FEF7F1" transform="translate(615,929)"/>
<path d="M0 0 C0.66 0.33 1.32 0.66 2 1 C-0.97 3.64 -3.94 6.28 -7 9 C-8.32 8.34 -9.64 7.68 -11 7 C-9.21475351 5.80286983 -7.4215972 4.61752721 -5.625 3.4375 C-4.62726563 2.77621094 -3.62953125 2.11492188 -2.6015625 1.43359375 C-1.74304688 0.96050781 -0.88453125 0.48742187 0 0 Z " fill="#C4D1D6" transform="translate(408,604)"/>
<path d="M0 0 C0.66 0.33 1.32 0.66 2 1 C-0.97 3.64 -3.94 6.28 -7 9 C-7.99 8.67 -8.98 8.34 -10 8 C-6.97727468 4.74475735 -3.74281699 2.38179263 0 0 Z " fill="#C5D2D8" transform="translate(690,605)"/>
<path d="M0 0 C1.17539996 0.92652701 2.34010577 1.86663387 3.5 2.8125 C4.1496875 3.33457031 4.799375 3.85664062 5.46875 4.39453125 C7 6 7 6 7 9 C5.82460004 8.07347299 4.65989423 7.13336613 3.5 6.1875 C2.52546875 5.40439453 2.52546875 5.40439453 1.53125 4.60546875 C0 3 0 3 0 0 Z " fill="#698B99" transform="translate(555,623)"/>
<path d="M0 0 C2.5 1.25 2.5 1.25 4.5 4.25 C0.67902761 3.71930939 -1.56171403 2.75298434 -4.5 0.25 C-2.5 -0.75 -2.5 -0.75 0 0 Z " fill="#477081" transform="translate(925.5,610.75)"/>
</svg>
